<?xml version="1.0" encoding="utf-8"?>
<!-- Generator: Adobe Illustrator 25.2.3, SVG Export Plug-In . SVG Version: 6.00 Build 0)  -->
<svg version="1.1" xmlns="http://www.w3.org/2000/svg" xmlns:xlink="http://www.w3.org/1999/xlink" x="0px" y="0px"
	 viewBox="0 0 106 42" style="enable-background:new 0 0 106 42;" xml:space="preserve">
<style type="text/css">
	.st0{display:none;}
	.st1{display:inline;}
	.st2{display:inline;fill:#FFFFFF;}
	.st3{display:inline;opacity:0.3;}
	.st4{font-family:'MyriadPro-Regular';}
	.st5{font-size:28.1199px;}
	.st6{fill:#FFFFFF;}
	.st7{clip-path:url(#SVGID_2_);fill:#FFFFFF;}
	.st8{fill:none;}
	.st9{font-family:'HelloJanuari';}
	.st10{font-size:12.3813px;}
	.st11{fill:#BC4ED8;}
	.st12{fill:#7AC4B1;}
	.st13{clip-path:url(#SVGID_4_);fill:#7AC4B1;}
	.st14{font-size:12.2178px;}
</style>
<g id="Capa_3" class="st0">
	<rect x="-8.3" y="-3.8" class="st1" width="126.7" height="50.4"/>
</g>
<g id="Capa_1" class="st0">
	<g id="Layer_3">
		<path class="st2" d="M31.1,9.2H20l-6.8,32.1H4.4l6.7-32.1H0L1.6,2h31.1L31.1,9.2z"/>
		<path class="st2" d="M42.9,41.1c-0.3,0.1-0.7,0.2-1.1,0.3c-0.4,0.1-0.9,0.2-1.4,0.3s-1,0.1-1.5,0.2c-0.5,0-1,0.1-1.5,0.1
			c-1.1,0-2.1-0.1-3.1-0.5c-0.8-0.3-1.5-0.7-2.1-1.3c-0.6-0.6-1-1.3-1.2-2.1c-0.3-0.8-0.4-1.7-0.4-2.6c0-0.4,0-0.8,0.1-1.3
			c0-0.5,0.1-1,0.2-1.5s0.2-1.1,0.3-1.6s0.2-1.1,0.3-1.6c0.1-0.3,0.2-0.9,0.4-1.7s0.4-1.8,0.6-2.9s0.5-2.2,0.7-3.4
			c0.3-1.2,0.5-2.3,0.7-3.4s0.4-2,0.6-2.9c0.2-0.8,0.3-1.4,0.4-1.7h8.7L40.1,29c-0.1,0.6-0.3,1.4-0.5,2.2c-0.2,0.7-0.2,1.4-0.2,2.1
			c-0.1,0.6,0.2,1.1,0.7,1.5c0.5,0.3,1,0.4,1.5,0.4s1-0.1,1.4-0.2c0.5-0.1,0.9-0.2,1.3-0.4c-0.2,1.1-0.5,2.2-0.7,3.2
			C43.4,38.9,43.1,40,42.9,41.1z M45.7,4.2c0,0.7-0.1,1.3-0.4,1.9c-0.3,0.6-0.6,1.1-1.1,1.5s-1,0.7-1.6,0.9c-0.7,0.2-1.3,0.3-2,0.3
			s-1.3-0.1-1.9-0.3c-0.6-0.2-1.1-0.5-1.5-0.9s-0.8-0.8-1-1.3s-0.4-1.1-0.4-1.7c0-1.3,0.5-2.5,1.5-3.4c0.5-0.4,1-0.7,1.7-0.9
			C39.5,0.1,40.2,0,40.9,0c0.6,0,1.3,0.1,1.9,0.3c0.6,0.2,1.1,0.5,1.5,0.9s0.8,0.8,1,1.3C45.6,3,45.7,3.6,45.7,4.2z"/>
		<path class="st2" d="M62.5,41.3h-9.6l-3.7-28.1h8.6l1.1,15.5c0,0.3,0.1,0.8,0.1,1.3s0.1,1,0.1,1.5s0,1.1,0,1.6s0,0.9,0,1.4h0.1
			c0.1-0.4,0.3-0.8,0.5-1.3s0.4-1,0.6-1.5s0.4-1,0.7-1.5s0.4-1,0.6-1.4l7.5-15.6h9.5L62.5,41.3z"/>
		<path class="st2" d="M106,24.4c0,1.3-0.1,2.7-0.4,4c-0.3,1.4-0.7,2.7-1.2,4c-0.6,1.3-1.3,2.6-2.1,3.7c-0.9,1.2-1.9,2.2-3.1,3.1
			c-1.3,0.9-2.7,1.6-4.3,2.1c-1.8,0.5-3.6,0.8-5.5,0.8c-1.8,0-3.7-0.3-5.4-0.9c-1.4-0.5-2.7-1.4-3.8-2.5c-1-1.1-1.8-2.4-2.2-3.8
			c-0.5-1.5-0.8-3.1-0.7-4.7c0-1.4,0.1-2.8,0.4-4.1c0.3-1.4,0.7-2.7,1.3-4c0.6-1.3,1.3-2.5,2.2-3.7c0.9-1.2,2-2.2,3.2-3
			c1.3-0.9,2.7-1.6,4.2-2c1.7-0.5,3.5-0.8,5.4-0.7c1.8,0,3.5,0.3,5.2,0.8c1.4,0.5,2.7,1.3,3.8,2.4c1,1.1,1.8,2.3,2.3,3.7
			C105.8,21.1,106,22.7,106,24.4z M97.3,24.5c0-0.7-0.1-1.4-0.3-2.1c-0.2-0.6-0.4-1.2-0.8-1.7c-0.3-0.5-0.8-0.8-1.3-1.1
			c-0.5-0.3-1.2-0.4-1.8-0.4c-1.1,0-2.2,0.3-3.1,1s-1.7,1.6-2.3,2.6c-0.6,1.1-1.1,2.3-1.4,3.5c-0.3,1.3-0.5,2.6-0.5,3.9
			c-0.1,1.4,0.3,2.8,1.2,3.9c0.7,0.9,1.9,1.4,3,1.4s2.2-0.3,3.1-1s1.7-1.5,2.3-2.5c0.6-1.1,1.1-2.3,1.4-3.5
			C97.1,27.1,97.3,25.8,97.3,24.5z"/>
	</g>
	<text transform="matrix(1 0 0 1 0 30.1318)" class="st3 st4 st5">MUSITY</text>
</g>
<g id="Capa_2" class="st0">
	<g class="st1">
		<path class="st6" d="M28.1,33.7c1.5,0.9,1.7,3.4,0.4,5.6c-1.3,2.2-3.5,3.4-5,2.5c-1.5-0.9-1.7-3.4-0.4-5.6
			C24.3,33.9,26.6,32.8,28.1,33.7z"/>
		<g>
			<path class="st6" d="M28.4,35.3c-0.2,0-0.4-0.2-0.4-0.4L27.2,3.1c0-0.3,0.2-0.5,0.5-0.5c0.3,0,0.5,0.2,0.5,0.5L29,34.8
				c0,0.3-0.2,0.5-0.5,0.5C28.5,35.3,28.4,35.3,28.4,35.3z"/>
		</g>
		<g>
			<path class="st6" d="M34.3,26.6C34.3,26.6,34.3,26.6,34.3,26.6c-0.3-0.1-0.4-0.7-0.2-1.3c2.1-7.3-1.2-10.8-3.2-12.8l-0.5-0.5
				c-2.7-3-3.2-5-3.3-7.8c0-0.5,0.2-1.2,0.5-1.4c0.3-0.2,0.6,0,0.6,0.5c0,2,0.3,3.8,3,6.7l0.5,0.5c2.1,2.2,5.9,6.2,3.3,15.2
				C34.9,26.3,34.5,26.6,34.3,26.6z"/>
		</g>
		<g>
			<path class="st6" d="M0.1,18.6L15.4,19c0.1-0.4,0.3-0.9,0.5-1.3L0.1,18.6z"/>
			<path class="st6" d="M13.5,24.2c-0.8,0-1.6,0.1-2.4,0.1c-1.6,0.1-3.2,0.1-4.8,0.2c2.8,0.1,5.5,0.2,8.3,0.3l0.2-0.7
				C14.4,24.2,13.9,24.1,13.5,24.2z"/>
			<path class="st6" d="M15.2,19.9L2,20.4L15,21c-0.1,0.4-0.1,0.7-0.1,1L4.2,22.4l10.6,0.4l0.1-0.3C14.9,21.9,15,20.9,15.2,19.9z"/>
		</g>
		<g>
			<defs>
				<polygon id="SVGID_1_" points="12.7,35.3 12.7,5.3 27.9,5.4 27.9,35.3 				"/>
			</defs>
			<clipPath id="SVGID_2_">
				<use xlink:href="#SVGID_1_"  style="overflow:visible;"/>
			</clipPath>
			<path class="st7" d="M42.3,17.5c-0.8-2.4-2.3-4.4-4.2-5.9l0.6-0.7l0.3,0.2c0.2,0.2,0.4,0.2,0.6,0l0.4-0.5
				c0.2-0.2,0.1-0.4-0.1-0.6l-2.3-1.8c-0.2-0.2-0.4-0.2-0.6,0l-0.4,0.5c-0.2,0.2-0.1,0.3,0.1,0.5L37,9.6l-0.7,0.7l0.3,0.2
				c-2-1.2-4.4-2-6.8-2.2l0-1.2l0.4,0c0.4,0,0.6-0.2,0.6-0.5l0-0.8c0-0.3-0.2-0.5-0.7-0.5l-2.2,0l-1.8,0c-0.4,0-0.6,0.2-0.6,0.5
				l0,0.8c0,0.3,0.2,0.5,0.6,0.5l0.5,0l0,1.2C25.8,8.6,24.9,8.7,24,9c-1.3,0.4-2.5,1-3.6,1.7L19.9,10l0.3-0.2
				c0.3-0.2,0.3-0.4,0.2-0.6l-0.4-0.5c-0.2-0.2-0.4-0.2-0.6,0l-2.4,1.6c-0.3,0.2-0.3,0.3-0.1,0.5l0.4,0.5c0.2,0.2,0.3,0.2,0.6,0
				l0.3-0.2l0.6,0.8c-3.9,3.5-5.6,8.9-3.8,14c1.9,5.4,7.2,8.9,13,9.2c0.4,0,0.7,0,1.1,0c1.6,0,3.2-0.3,4.7-0.9
				c3.3-1.1,6-3.4,7.6-6.2C43.2,24.9,43.6,21.1,42.3,17.5z M40.1,27.1L39,26.5c-0.1-0.1-0.3,0-0.4,0.1c-0.1,0.1,0,0.3,0.1,0.3
				l1.1,0.5c-1,1.6-2.3,3-3.9,4.1c-0.1,0.2-0.3,0.3-0.5,0.3c-0.8,0.5-1.7,0.9-2.7,1.2c-1,0.3-2,0.5-3,0.6l0,0c-0.2,0-0.4,0-0.5,0
				l0,0.1c0,0-0.1,0-0.1,0c-2,0-4-0.3-5.7-1.1l0.5-1c0.1-0.1,0-0.3-0.1-0.3c-0.1-0.1-0.3,0-0.4,0.1l-0.5,1c-1.8-0.9-3.3-2.1-4.5-3.6
				l1-0.6c0.1-0.1,0.2-0.2,0.1-0.3c-0.1-0.1-0.3-0.2-0.4-0.1l-1,0.6c-0.6-0.8-1.1-1.8-1.4-2.8c-0.3-0.8-0.5-1.6-0.6-2.5L17,23
				c0.1,0,0.3-0.1,0.3-0.2c0-0.2-0.1-0.3-0.3-0.3l-1.2,0.1c-0.1-1.9,0.2-3.8,1-5.5l1.1,0.5c0,0,0.1,0,0.1,0c0.1,0,0.2-0.1,0.3-0.2
				c0-0.1,0-0.2-0.2-0.3l-1.1-0.5c0.9-1.7,2.1-3.2,3.7-4.3l0.7,0.9c0.1,0.1,0.1,0.1,0.2,0.1c0.1,0,0.1,0,0.2-0.1
				c0.1-0.1,0.1-0.3,0-0.4L21.3,12c1-0.7,2.1-1.2,3.3-1.6c1.1-0.4,2.2-0.6,3.5-0.6V11c0,0.1,0.2,0.3,0.3,0.3c0.2,0,0.3-0.1,0.3-0.3
				V9.9c1.7,0,3.9,0.4,5.7,1.3c0.1,0,0.1,0.1,0.2,0.1l-0.6,1c-0.1,0.1,0,0.3,0.1,0.3c0,0,0.1,0,0.1,0c0.1,0,0.2,0,0.2-0.1l0.6-1
				c1.8,1,3.3,2.3,4.3,3.9l-1.1,0.6c-0.1,0.1-0.2,0.2-0.1,0.3c0,0.1,0.1,0.1,0.2,0.1c0,0,0.1,0,0.1,0l1.1-0.6
				c0.4,0.7,0.8,1.5,1.1,2.3c0.4,1,0.6,2.1,0.6,3.1l-1.3,0c-0.2,0-0.3,0.1-0.3,0.3c0,0.1,0.1,0.2,0.3,0.2h0l1.3,0
				C41.4,23.5,41,25.4,40.1,27.1z"/>
		</g>
		<g>
			<path class="st6" d="M34.3,26.6l5.9-17.1l1.5-4.3L42.5,3c0.1-0.4,0.2-0.7,0.4-1.1c0.2-0.4,0.3-0.8,0.6-1.2
				c0.1-0.1,0.2-0.2,0.3-0.4c0.1-0.1,0.2-0.1,0.3-0.2c0.1-0.1,0.4-0.2,0.7-0.2c0.2,0,0.3,0.1,0.5,0.1c0.1,0.1,0.2,0.1,0.3,0.2
				c0.1,0.1,0.2,0.3,0.3,0.4c0.1,0.2,0.1,0.3,0.2,0.5c0.1,0.5,0.1,0.9,0.2,1.3c0,0.5,0,0.8,0,1.2L46,4.8l-0.2,4.5
				c-0.3,6-0.3,12.1-0.7,18.1c-0.2,3-0.4,6-0.4,8.9c0,0.7,0,1.5,0.1,2.2c0,0.4,0.1,0.7,0.1,1l0.1,0.4l0.2,0.4
				c0.1,0.1,0.2,0.3,0.2,0.4c0.1,0.1,0.2,0.2,0.3,0.3c0.2,0.2,0.4,0.2,0.7,0.2c0.6-0.1,1.2-0.5,1.7-1.1l0.2,0.2
				c-0.4,0.7-0.9,1.3-1.7,1.7c-0.4,0.2-1,0.2-1.5,0c-0.3-0.1-0.4-0.3-0.6-0.4c-0.2-0.2-0.3-0.3-0.5-0.5l-0.4-0.5
				c-0.1-0.2-0.2-0.4-0.3-0.6c-0.1-0.4-0.3-0.8-0.4-1.2c-0.2-0.8-0.3-1.6-0.4-2.3c-0.4-3.1-0.5-6.1-0.5-9.2c0-6.1,0.8-12.1,1.4-18.1
				l0.5-4.5l0.1-1.1c0-0.3,0.1-0.8,0.1-1c0-0.3,0-0.7-0.1-0.9c0,0,0-0.1,0-0.1c0,0,0,0.1,0.1,0.1c0.1,0.1,0.1,0.1,0.2,0.1
				c0.1,0.1,0.2,0.1,0.3,0.1c0.5,0,0.5-0.2,0.5-0.2c0,0,0,0-0.1,0.1c-0.1,0.2-0.3,0.5-0.4,0.8c-0.1,0.3-0.3,0.7-0.4,1l-0.9,2.1
				l-1.7,4.2l-7,16.7L34.3,26.6z"/>
		</g>
		<g>
			
				<rect x="48.3" y="20.3" transform="matrix(0.9999 -1.546001e-02 1.546001e-02 0.9999 -0.5075 1.0865)" class="st8" width="43.4" height="26.1"/>
			<text transform="matrix(1.0104 -1.562296e-02 1.546001e-02 0.9999 48.3736 36.4363)" class="st6 st9 st10">usity</text>
		</g>
	</g>
</g>
<g id="Capa_4">
	<rect class="st11" width="106" height="42"/>
	<g>
		<path class="st12" d="M29.3,34.7c-0.2,0-0.3-0.2-0.4-0.4L28.1,2.9c0-0.3,0.2-0.5,0.5-0.5c0.3,0,0.5,0.2,0.5,0.5l0.8,31.3
			c0,0.3-0.2,0.5-0.5,0.5C29.4,34.7,29.3,34.7,29.3,34.7z"/>
	</g>
	<path class="st12" d="M29,33.1c1.5,0.8,1.6,3.3,0.4,5.5c-1.3,2.2-3.5,3.3-5,2.5c-1.5-0.8-1.6-3.3-0.4-5.5
		C25.3,33.3,27.5,32.2,29,33.1z"/>
	<g>
		<path class="st12" d="M35.1,26.1C35.1,26.1,35.1,26.1,35.1,26.1c-0.3-0.1-0.4-0.7-0.2-1.3c2.1-7.2-1.2-10.6-3.1-12.6l-0.5-0.5
			c-2.7-2.9-3.2-4.9-3.2-7.7c0-0.5,0.2-1.2,0.5-1.4c0.3-0.2,0.6,0,0.6,0.5c0,2,0.3,3.7,2.9,6.6l0.5,0.5c2,2.1,5.9,6.1,3.3,15
			C35.7,25.8,35.4,26.1,35.1,26.1z"/>
	</g>
	<g>
		<path class="st12" d="M2.6,16.6l13.7,0.3c0.1-0.4,0.3-0.8,0.5-1.1L2.6,16.6z"/>
		<path class="st12" d="M14.5,21.6c-0.7,0-1.4,0.1-2.2,0.1c-1.4,0.1-2.9,0.1-4.3,0.2c2.5,0.1,4.9,0.2,7.4,0.3l0.2-0.7
			C15.3,21.6,14.9,21.5,14.5,21.6z"/>
		<path class="st12" d="M16.1,17.8L4.3,18.2l11.6,0.5c0,0.3-0.1,0.6-0.1,0.9L6.2,20l9.5,0.4l0.1-0.3C15.8,19.5,15.9,18.7,16.1,17.8z
			"/>
	</g>
	<g>
		<defs>
			<polygon id="SVGID_3_" points="13.9,34.7 13.9,5.1 28.9,5.2 28.8,34.7 			"/>
		</defs>
		<clipPath id="SVGID_4_">
			<use xlink:href="#SVGID_3_"  style="overflow:visible;"/>
		</clipPath>
		<path class="st13" d="M43,17.2c-0.8-2.3-2.3-4.3-4.1-5.8l0.6-0.7l0.3,0.2c0.2,0.2,0.4,0.2,0.6,0l0.4-0.5c0.2-0.2,0.1-0.4-0.1-0.6
			l-2.3-1.8c-0.2-0.2-0.4-0.2-0.6,0l-0.4,0.5c-0.2,0.2-0.1,0.3,0.1,0.5l0.3,0.2l-0.6,0.7l0.2,0.2c-2-1.2-4.3-2-6.7-2.2l0-1.2l0.4,0
			c0.4,0,0.6-0.2,0.6-0.5l0-0.8c0-0.3-0.2-0.5-0.7-0.5l-2.2,0l-1.8,0c-0.4,0-0.6,0.2-0.6,0.5l0,0.8c0,0.3,0.2,0.5,0.6,0.4l0.5,0
			l0,1.2c-0.9,0.1-1.8,0.3-2.6,0.6c-1.3,0.4-2.5,1-3.6,1.7l-0.5-0.7l0.3-0.2c0.2-0.2,0.3-0.4,0.2-0.5L21,8.5c-0.2-0.2-0.4-0.2-0.6,0
			L18,10.1c-0.2,0.2-0.3,0.3-0.1,0.5l0.4,0.5c0.2,0.2,0.3,0.2,0.6,0l0.3-0.2l0.6,0.7c-3.9,3.4-5.5,8.8-3.7,13.8
			c1.9,5.4,7.1,8.8,12.8,9.1c0.4,0,0.7,0,1.1,0c1.5,0,3.1-0.3,4.6-0.9c3.2-1.1,5.9-3.3,7.5-6.2C44,24.4,44.3,20.7,43,17.2z
			 M40.8,26.6l-1.1-0.5c-0.1-0.1-0.3,0-0.4,0.1c-0.1,0.1,0,0.3,0.1,0.3l1.1,0.5c-1,1.6-2.3,3-3.9,4c-0.1,0.2-0.3,0.3-0.5,0.3
			c-0.8,0.5-1.7,0.9-2.6,1.2c-1,0.3-2,0.5-3,0.6l0,0c-0.2,0-0.4,0-0.5,0l0,0.1c0,0-0.1,0-0.1,0c-2,0-3.9-0.3-5.6-1.1l0.5-1
			c0.1-0.1,0-0.3-0.1-0.3c-0.1-0.1-0.3,0-0.4,0.1l-0.5,1c-1.7-0.8-3.3-2.1-4.5-3.6l1-0.6c0.1-0.1,0.2-0.2,0.1-0.3
			c-0.1-0.1-0.3-0.2-0.4-0.1l-1,0.6c-0.6-0.8-1.1-1.7-1.4-2.7c-0.3-0.8-0.5-1.6-0.6-2.4l1.1-0.1c0.1,0,0.3-0.1,0.3-0.2
			c0-0.2-0.1-0.3-0.3-0.3l-1.2,0.1c-0.1-1.9,0.2-3.7,1-5.4l1,0.5c0,0,0.1,0,0.1,0c0.1,0,0.2-0.1,0.3-0.2c0-0.1,0-0.2-0.2-0.3l-1-0.4
			c0.8-1.7,2.1-3.1,3.7-4.3l0.7,0.9c0.1,0.1,0.1,0.1,0.2,0.1c0.1,0,0.1,0,0.2-0.1c0.1-0.1,0.1-0.2,0-0.4l-0.7-0.9
			c1-0.6,2.1-1.2,3.2-1.5c1.1-0.3,2.2-0.5,3.4-0.6v1.1c0,0.1,0.2,0.3,0.3,0.3c0.1,0,0.3-0.1,0.3-0.3V9.6c1.6,0,3.8,0.4,5.6,1.2
			c0.1,0,0.1,0.1,0.2,0.1l-0.6,1c-0.1,0.1,0,0.3,0.1,0.3c0,0,0.1,0,0.1,0c0.1,0,0.2,0,0.2-0.1l0.6-1c1.8,0.9,3.2,2.2,4.3,3.8l-1,0.6
			c-0.1,0.1-0.2,0.2-0.1,0.3c0,0.1,0.1,0.1,0.2,0.1c0,0,0.1,0,0.1,0l1.1-0.6c0.4,0.7,0.8,1.4,1.1,2.2c0.4,1,0.6,2,0.6,3.1l-1.2,0
			c-0.2,0-0.3,0.1-0.2,0.3c0,0.1,0.1,0.2,0.3,0.2h0l1.2,0C42.2,23.1,41.7,24.9,40.8,26.6z"/>
	</g>
	<g>
		<path class="st12" d="M35.2,26.1l6-16.9L42.7,5l0.8-2.1c0.3-0.7,0.5-1.4,1-2.2c0.1-0.1,0.1-0.2,0.2-0.3c0.1-0.1,0.3-0.3,0.8-0.3
			c0.1,0,0.2,0,0.3,0.1c0.1,0.1,0.1,0.1,0.2,0.2c0.1,0.1,0.2,0.2,0.2,0.3c0.1,0.2,0.1,0.3,0.1,0.4c0.1,0.5,0.1,0.9,0.1,1.2
			c0,0.9-0.1,1.5-0.1,2.3l-0.3,4.5c-0.3,6-0.5,11.9-0.8,17.8c-0.2,3-0.3,5.9-0.3,8.9c0,0.7,0,1.5,0.1,2.2c0,0.4,0.1,0.7,0.2,1
			l0.1,0.5l0.2,0.5c0.3,0.6,0.8,1,1.4,0.9c0.6-0.1,1.2-0.6,1.7-1.2l0.2,0.1c-0.4,0.6-0.9,1.3-1.7,1.6c-0.4,0.2-0.9,0.2-1.3-0.1
			c-0.2-0.1-0.4-0.2-0.6-0.4c-0.1-0.2-0.3-0.3-0.4-0.5l-0.3-0.5c-0.1-0.2-0.2-0.4-0.3-0.6c-0.1-0.4-0.2-0.8-0.3-1.1
			c-0.2-0.8-0.3-1.5-0.4-2.3c-0.3-3-0.3-6-0.3-9c0.1-6,0.7-11.9,1.2-17.9l0.4-4.5C45,3.8,45.1,3,45.1,2.3c0-0.3,0-0.7-0.1-1
			c0-0.1,0-0.1,0-0.1c0,0,0,0,0,0c0,0,0.1,0,0.1,0.1c0.1,0,0.1,0,0.2,0.1c0.3,0,0.3-0.1,0.3-0.1c0,0-0.1,0.1-0.1,0.1
			c-0.3,0.5-0.6,1.2-0.9,1.9l-0.8,2.1l-1.7,4.2l-6.8,16.6L35.2,26.1z"/>
	</g>
	<text transform="matrix(1.0104 -1.562296e-02 1.546001e-02 0.9999 48.7968 34.6676)" class="st12 st9 st14">usity</text>
</g>
</svg>
