<?xml version="1.0" encoding="utf-8"?>
<!-- Generator: Adobe Illustrator 25.2.3, SVG Export Plug-In . SVG Version: 6.00 Build 0)  -->
<svg version="1.1" xmlns="http://www.w3.org/2000/svg" xmlns:xlink="http://www.w3.org/1999/xlink" x="0px" y="0px"
	 viewBox="0 0 106 42" style="enable-background:new 0 0 106 42;" xml:space="preserve">
<style type="text/css">
	.st0{display:none;}
	.st1{display:inline;fill:#FFFFFF;}
	.st2{display:inline;}
	.st3{fill:#FFFFFF;}
	.st4{clip-path:url(#SVGID_3_);fill:#FFFFFF;}
	.st5{font-family:'HelloJanuari';}
	.st6{font-size:11.9063px;}
	.st7{fill:#68DDBD;}
	.st8{clip-path:url(#SVGID_5_);fill:#68DDBD;}
	.st9{fill:#BC4ED8;}
	.st10{font-size:11.026px;}
</style>
<g id="Capa_1" class="st0">
	<g id="Layer_3">
		<path class="st1" d="M31.1,9.2H20l-6.8,32.1H4.4l6.7-32.1H0L1.6,2h31.1L31.1,9.2z"/>
		<path class="st1" d="M42.9,41.1c-0.3,0.1-0.7,0.2-1.1,0.3c-0.4,0.1-0.9,0.2-1.4,0.3s-1,0.1-1.5,0.2c-0.5,0-1,0.1-1.5,0.1
			c-1.1,0-2.1-0.1-3.1-0.5c-0.8-0.3-1.5-0.7-2.1-1.3c-0.6-0.6-1-1.3-1.2-2.1c-0.3-0.8-0.4-1.7-0.4-2.6c0-0.4,0-0.8,0.1-1.3
			c0-0.5,0.1-1,0.2-1.5s0.2-1.1,0.3-1.6s0.2-1.1,0.3-1.6c0.1-0.3,0.2-0.9,0.4-1.7s0.4-1.8,0.6-2.9s0.5-2.2,0.7-3.4
			c0.3-1.2,0.5-2.3,0.7-3.4s0.4-2,0.6-2.9c0.2-0.8,0.3-1.4,0.4-1.7h8.7L40.1,29c-0.1,0.6-0.3,1.4-0.5,2.2c-0.2,0.7-0.2,1.4-0.2,2.1
			c-0.1,0.6,0.2,1.1,0.7,1.5c0.5,0.3,1,0.4,1.5,0.4s1-0.1,1.4-0.2c0.5-0.1,0.9-0.2,1.3-0.4c-0.2,1.1-0.5,2.2-0.7,3.2
			C43.4,38.9,43.1,40,42.9,41.1z M45.7,4.2c0,0.7-0.1,1.3-0.4,1.9c-0.3,0.6-0.6,1.1-1.1,1.5s-1,0.7-1.6,0.9c-0.7,0.2-1.3,0.3-2,0.3
			s-1.3-0.1-1.9-0.3c-0.6-0.2-1.1-0.5-1.5-0.9s-0.8-0.8-1-1.3s-0.4-1.1-0.4-1.7c0-1.3,0.5-2.5,1.5-3.4c0.5-0.4,1-0.7,1.7-0.9
			C39.5,0.1,40.2,0,40.9,0c0.6,0,1.3,0.1,1.9,0.3c0.6,0.2,1.1,0.5,1.5,0.9s0.8,0.8,1,1.3C45.6,3,45.7,3.6,45.7,4.2z"/>
		<path class="st1" d="M62.5,41.3h-9.6l-3.7-28.1h8.6l1.1,15.5c0,0.3,0.1,0.8,0.1,1.3s0.1,1,0.1,1.5s0,1.1,0,1.6s0,0.9,0,1.4h0.1
			c0.1-0.4,0.3-0.8,0.5-1.3s0.4-1,0.6-1.5s0.4-1,0.7-1.5s0.4-1,0.6-1.4l7.5-15.6h9.5L62.5,41.3z"/>
		<path class="st1" d="M106,24.4c0,1.3-0.1,2.7-0.4,4c-0.3,1.4-0.7,2.7-1.2,4c-0.6,1.3-1.3,2.6-2.1,3.7c-0.9,1.2-1.9,2.2-3.1,3.1
			c-1.3,0.9-2.7,1.6-4.3,2.1c-1.8,0.5-3.6,0.8-5.5,0.8c-1.8,0-3.7-0.3-5.4-0.9c-1.4-0.5-2.7-1.4-3.8-2.5c-1-1.1-1.8-2.4-2.2-3.8
			c-0.5-1.5-0.8-3.1-0.7-4.7c0-1.4,0.1-2.8,0.4-4.1c0.3-1.4,0.7-2.7,1.3-4c0.6-1.3,1.3-2.5,2.2-3.7c0.9-1.2,2-2.2,3.2-3
			c1.3-0.9,2.7-1.6,4.2-2c1.7-0.5,3.5-0.8,5.4-0.7c1.8,0,3.5,0.3,5.2,0.8c1.4,0.5,2.7,1.3,3.8,2.4c1,1.1,1.8,2.3,2.3,3.7
			C105.8,21.1,106,22.7,106,24.4z M97.3,24.5c0-0.7-0.1-1.4-0.3-2.1c-0.2-0.6-0.4-1.2-0.8-1.7c-0.3-0.5-0.8-0.8-1.3-1.1
			c-0.5-0.3-1.2-0.4-1.8-0.4c-1.1,0-2.2,0.3-3.1,1s-1.7,1.6-2.3,2.6c-0.6,1.1-1.1,2.3-1.4,3.5c-0.3,1.3-0.5,2.6-0.5,3.9
			c-0.1,1.4,0.3,2.8,1.2,3.9c0.7,0.9,1.9,1.4,3,1.4s2.2-0.3,3.1-1s1.7-1.5,2.3-2.5c0.6-1.1,1.1-2.3,1.4-3.5
			C97.1,27.1,97.3,25.8,97.3,24.5z"/>
	</g>
	<g id="Musity" class="st2">
		<path class="st3" d="M32.5,32c1.4,0.8,1.6,3.2,0.4,5.4c-1.2,2.2-3.4,3.3-4.8,2.4c-1.4-0.8-1.6-3.2-0.4-5.4
			C28.9,32.3,31.1,31.2,32.5,32z"/>
		<g>
			<path class="st3" d="M32.8,33.6c-0.2,0-0.3-0.2-0.3-0.4L31.6,2.6c0-0.2,0.2-0.5,0.4-0.5c0.3,0,0.5,0.2,0.5,0.4L33.3,33
				C33.3,33.2,33.1,33.5,32.8,33.6C32.9,33.6,32.8,33.6,32.8,33.6z"/>
		</g>
		<g>
			<path class="st3" d="M38.5,25.2L38.5,25.2c-0.3-0.1-0.4-0.7-0.2-1.2c2-7-1.1-10.3-3-12.3l-0.5-0.5c-2.6-2.9-3.1-4.8-3.2-7.5
				c0-0.5,0.2-1.1,0.5-1.4c0.3-0.2,0.6,0,0.6,0.5c0,1.9,0.3,3.6,2.8,6.5L36,9.7c2,2.1,5.7,6,3.2,14.7C39,24.9,38.7,25.3,38.5,25.2z"
				/>
		</g>
		<g>
			<path class="st3" d="M5.6,17.5l14.7,0.4c0.1-0.4,0.3-0.8,0.5-1.2L5.6,17.5z"/>
			<path class="st3" d="M18.5,22.9c-0.8,0-1.6,0.1-2.3,0.1c-1.6,0.1-3.1,0.1-4.7,0.2c2.7,0.1,5.3,0.2,8,0.3l0.2-0.7
				C19.3,22.9,18.8,22.9,18.5,22.9z"/>
			<path class="st3" d="M20.1,18.8L7.5,19.3l12.4,0.5c-0.1,0.3-0.1,0.7-0.1,1L9.5,21.3l10.2,0.4l0.1-0.3
				C19.8,20.7,19.9,19.8,20.1,18.8z"/>
		</g>
		<g>
			<g>
				<polygon id="SVGID_1_" class="st3" points="17.8,33.6 17.8,4.8 32.4,4.8 32.4,33.6 				"/>
			</g>
			<g>
				<defs>
					<rect id="SVGID_2_" x="17.8" y="4.8" width="14.6" height="28.8"/>
				</defs>
				<clipPath id="SVGID_3_">
					<use xlink:href="#SVGID_2_"  style="overflow:visible;"/>
				</clipPath>
				<path class="st4" d="M46.2,16.5c-0.8-2.3-2.2-4.2-4-5.7l0.6-0.7l0.2,0.2c0.2,0.2,0.4,0.2,0.6,0L44,10c0.2-0.2,0.1-0.4-0.1-0.6
					l-2.2-1.7c-0.2-0.2-0.4-0.2-0.6,0l-0.4,0.5c-0.2,0.2-0.1,0.3,0.1,0.5l0.3,0.2l-0.6,0.7l0.2,0.2c-1.9-1.2-4.2-1.9-6.6-2.1V6.5
					h0.4c0.4,0,0.6-0.1,0.6-0.5V5.2c0-0.3-0.2-0.5-0.6-0.5h-2.1h-1.7c-0.4,0-0.6,0.2-0.6,0.5V6c0,0.3,0.2,0.4,0.6,0.4h0.5v1.2
					c-0.9,0.1-1.7,0.3-2.6,0.5c-1.3,0.4-2.4,0.9-3.5,1.6l-0.5-0.6l0.3-0.2c0.2-0.2,0.3-0.3,0.2-0.5l-0.4-0.5c-0.1-0.2-0.4-0.2-0.6,0
					l-2.3,1.6c-0.2,0.2-0.3,0.3-0.1,0.5l0.4,0.5c0.1,0.2,0.3,0.2,0.6,0l0.3-0.2l0.6,0.7c-3.8,3.4-5.4,8.6-3.6,13.5
					c1.9,5.2,7,8.6,12.5,8.8c0.3,0,0.7,0,1,0c1.5,0,3-0.3,4.5-0.8c3.1-1.1,5.8-3.2,7.3-6C47.1,23.6,47.4,19.9,46.2,16.5z M44,25.7
					l-1-0.5c-0.1-0.1-0.3,0-0.4,0.1c-0.1,0.1,0,0.3,0.1,0.3l1.1,0.5C42.9,27.7,41.6,29,40,30c-0.1,0.2-0.3,0.3-0.5,0.3
					c-0.8,0.5-1.7,0.8-2.6,1.1c-1,0.3-1.9,0.5-2.9,0.5l0,0c-0.2,0-0.4,0-0.5,0V32h-0.1c-1.9,0-3.8-0.3-5.5-1.1l0.5-0.9
					c0.1-0.1,0-0.3-0.1-0.3c-0.1-0.1-0.3,0-0.4,0.1l-0.5,1c-1.7-0.8-3.2-2-4.3-3.5l0.9-0.6c0.1-0.1,0.2-0.2,0.1-0.3
					c-0.1-0.1-0.3-0.2-0.4-0.1l-0.9,0.6c-0.6-0.8-1-1.7-1.4-2.7c-0.3-0.8-0.5-1.6-0.6-2.4l1.1-0.1c0.1,0,0.3-0.1,0.3-0.2
					s-0.1-0.3-0.3-0.3l-1.1,0.1c-0.1-1.8,0.2-3.6,1-5.3l1,0.4h0.1c0.1,0,0.2-0.1,0.3-0.2c0-0.1,0-0.2-0.2-0.3l-1-0.4
					c0.8-1.6,2.1-3,3.6-4.2l0.7,0.9c0.1,0.1,0.1,0.1,0.2,0.1s0.1,0,0.2,0c0.1-0.1,0.1-0.2,0-0.4L26,11.2c1-0.6,2-1.1,3.2-1.5
					c1.1-0.3,2.1-0.5,3.3-0.6v1.1c0,0.1,0.2,0.2,0.3,0.2s0.3-0.1,0.3-0.2V9.1c1.6,0,3.7,0.4,5.5,1.2c0.1,0,0.1,0.1,0.2,0.1l-0.6,1
					c-0.1,0.1,0,0.3,0.1,0.3h0.1c0.1,0,0.2,0,0.2-0.1l0.6-1c1.7,0.9,3.1,2.2,4.2,3.7l-1,0.6c-0.1,0.1-0.2,0.2-0.1,0.3
					c0,0.1,0.1,0.1,0.2,0.1h0.1l1-0.6c0.4,0.7,0.8,1.4,1.1,2.2c0.4,1,0.6,2,0.6,3h-1.2c-0.2,0-0.3,0.1-0.2,0.3
					c0,0.1,0.1,0.2,0.3,0.2l0,0h1.2C45.3,22.3,44.9,24.1,44,25.7z"/>
			</g>
		</g>
		<path class="st3" d="M38.6,25.3l8.8-23c0,0,1.4-3.7,1.4-0.1c0,1.2-2.9,32-0.8,36.3c1.5,3.2,3.8,0,3.8,0"/>
		<text transform="matrix(1.0104 -1.562296e-02 1.546001e-02 0.9999 50.5603 35.2093)" class="st3 st5 st6">usity</text>
	</g>
</g>
<g id="Capa_2">
	<path class="st7" d="M35.3,31.8c1.3,0.8,1.5,3,0.3,5c-1.1,2-3.1,3-4.5,2.3c-1.3-0.8-1.5-3-0.3-5C32,32.1,34,31.1,35.3,31.8z"/>
	<g>
		<path class="st7" d="M35.6,33.2c-0.2,0-0.3-0.2-0.3-0.4L34.5,4.6c0-0.2,0.2-0.4,0.4-0.4c0.2,0,0.4,0.2,0.4,0.4l0.8,28.2
			c0,0.2-0.2,0.4-0.4,0.4C35.6,33.3,35.6,33.3,35.6,33.2z"/>
	</g>
	<g>
		<path class="st7" d="M40.8,25.5C40.8,25.5,40.8,25.5,40.8,25.5c-0.3-0.1-0.3-0.6-0.2-1.1c1.9-6.5-1.1-9.6-2.8-11.4l-0.4-0.5
			c-2.4-2.6-2.9-4.4-2.9-7c0-0.5,0.2-1.1,0.5-1.3c0.3-0.2,0.5,0,0.5,0.5c0,1.8,0.3,3.4,2.6,6l0.4,0.5c1.8,1.9,5.3,5.5,2.9,13.6
			C41.3,25.2,41.1,25.6,40.8,25.5z"/>
	</g>
	<g>
		<path class="st7" d="M10.4,18.4L24,18.7c0.1-0.4,0.3-0.8,0.5-1.1L10.4,18.4z"/>
		<path class="st7" d="M22.3,23.4c-0.7,0-1.4,0.1-2.2,0.1c-1.4,0.1-2.9,0.1-4.3,0.2c2.5,0.1,4.9,0.2,7.4,0.3l0.2-0.7
			C23.1,23.4,22.6,23.3,22.3,23.4z"/>
		<path class="st7" d="M23.8,19.6l-11.7,0.5l11.5,0.5c0,0.3-0.1,0.6-0.1,0.9L14,21.8l9.5,0.4l0.1-0.3C23.6,21.3,23.6,20.5,23.8,19.6
			z"/>
	</g>
	<g>
		<defs>
			<polygon id="SVGID_4_" points="21.6,33.3 21.6,6.6 35.2,6.6 35.2,33.2 			"/>
		</defs>
		<clipPath id="SVGID_5_">
			<use xlink:href="#SVGID_4_"  style="overflow:visible;"/>
		</clipPath>
		<path class="st8" d="M48,17.5c-0.7-2.1-2.1-3.9-3.7-5.2l0.5-0.6l0.2,0.2c0.2,0.2,0.4,0.2,0.5,0l0.4-0.4c0.1-0.2,0.1-0.3-0.1-0.5
			l-2.1-1.6c-0.2-0.2-0.4-0.1-0.5,0l-0.4,0.4c-0.1,0.2-0.1,0.3,0.1,0.5l0.3,0.2l-0.6,0.7l0.2,0.2c-1.8-1.1-3.9-1.8-6.1-2l0-1.1
			l0.4,0c0.4,0,0.6-0.1,0.6-0.4l0-0.7c0-0.3-0.2-0.4-0.6-0.4l-2,0l-1.6,0c-0.4,0-0.5,0.2-0.5,0.4l0,0.7c0,0.3,0.2,0.4,0.5,0.4l0.5,0
			l0,1.1c-0.8,0.1-1.6,0.3-2.4,0.5c-1.2,0.4-2.3,0.9-3.2,1.5L28,10.8l0.2-0.2c0.2-0.2,0.3-0.3,0.2-0.5l-0.4-0.5
			c-0.1-0.2-0.3-0.2-0.6,0l-2.2,1.5c-0.2,0.2-0.2,0.3-0.1,0.5l0.4,0.5c0.1,0.2,0.3,0.2,0.5,0l0.3-0.2l0.5,0.7
			c-3.5,3.1-5,7.9-3.3,12.5c1.7,4.8,6.4,8,11.6,8.2c0.3,0,0.6,0,1,0c1.4,0,2.8-0.3,4.2-0.8c2.9-1,5.3-3,6.8-5.6
			C48.8,24,49.1,20.6,48,17.5z M46,26l-1-0.5c-0.1-0.1-0.3,0-0.3,0.1c0,0.1,0,0.2,0.1,0.3l1,0.5c-0.9,1.5-2.1,2.7-3.5,3.6
			c-0.1,0.2-0.3,0.3-0.5,0.3c-0.7,0.4-1.5,0.8-2.4,1c-0.9,0.3-1.8,0.4-2.7,0.5l0,0c-0.2,0-0.3,0-0.5,0l0,0c0,0-0.1,0-0.1,0
			c-1.8,0-3.5-0.3-5.1-1l0.5-0.9c0.1-0.1,0-0.2-0.1-0.3c-0.1-0.1-0.3,0-0.4,0.1l-0.5,0.9c-1.6-0.8-3-1.9-4-3.2l0.9-0.5
			c0.1-0.1,0.2-0.2,0.1-0.3c-0.1-0.1-0.2-0.2-0.4-0.1l-0.9,0.6c-0.5-0.8-1-1.6-1.3-2.5c-0.3-0.7-0.4-1.5-0.5-2.2l1-0.1
			c0.1,0,0.2-0.1,0.2-0.2c0-0.1-0.1-0.2-0.3-0.2l-1,0.1c-0.1-1.7,0.2-3.4,0.9-4.9l0.9,0.4c0,0,0.1,0,0.1,0c0.1,0,0.2-0.1,0.2-0.2
			c0-0.1,0-0.2-0.1-0.3l-0.9-0.4c0.8-1.5,1.9-2.8,3.3-3.9l0.6,0.8c0,0.1,0.1,0.1,0.2,0.1c0.1,0,0.1,0,0.1,0c0.1-0.1,0.1-0.2,0-0.3
			l-0.6-0.8c0.9-0.6,1.9-1.1,2.9-1.4c1-0.3,1.9-0.5,3.1-0.5v1c0,0.1,0.2,0.2,0.3,0.2c0.1,0,0.3-0.1,0.3-0.2v-1
			c1.5,0,3.5,0.4,5.1,1.1c0.1,0,0.1,0.1,0.2,0.1l-0.5,0.9c-0.1,0.1,0,0.2,0.1,0.3c0,0,0.1,0,0.1,0c0.1,0,0.2,0,0.2-0.1l0.5-0.9
			c1.6,0.9,2.9,2,3.9,3.4L44.4,16c-0.1,0.1-0.2,0.2-0.1,0.3c0,0.1,0.1,0.1,0.2,0.1c0,0,0.1,0,0.1,0l1-0.5c0.4,0.6,0.7,1.3,1,2
			c0.3,0.9,0.5,1.8,0.6,2.8l-1.1,0c-0.2,0-0.3,0.1-0.2,0.3c0,0.1,0.1,0.2,0.2,0.2h0l1.1,0C47.2,22.8,46.8,24.5,46,26z"/>
	</g>
	<g>
		<path class="st7" d="M40.8,25.5l5.4-15.2l1.4-3.8l0.7-1.9c0.2-0.6,0.4-1.3,0.9-2c0-0.1,0.1-0.2,0.2-0.3c0.1-0.1,0.2-0.1,0.2-0.2
			C49.7,2.1,50,2,50.1,2c0.2,0,0.4,0.1,0.5,0.3c0.1,0.1,0.1,0.2,0.2,0.3c0.1,0.2,0.1,0.3,0.1,0.4c0.1,0.4,0.1,0.8,0.1,1.1
			c0,0.8-0.1,1.4-0.1,2.1l-0.2,4c-0.3,5.4-0.4,10.7-0.7,16.1c-0.1,2.7-0.3,5.3-0.3,8c0,0.7,0,1.3,0.1,2c0,0.3,0.1,0.6,0.1,0.9
			l0.1,0.4l0.2,0.4c0.3,0.5,0.7,0.9,1.2,0.8c0.6-0.1,1.1-0.6,1.6-1l0.2,0.1c-0.4,0.6-0.8,1.2-1.5,1.5c-0.4,0.2-0.9,0.2-1.2,0
			c-0.2-0.1-0.3-0.2-0.5-0.3c-0.1-0.1-0.3-0.3-0.4-0.4L49.2,38c-0.1-0.2-0.2-0.4-0.2-0.5c-0.1-0.3-0.2-0.7-0.3-1
			c-0.2-0.7-0.2-1.4-0.3-2.1c-0.3-2.7-0.3-5.4-0.3-8.1c0-5.4,0.6-10.8,1.1-16.1l0.4-4c0.1-0.6,0.1-1.4,0.2-1.9c0-0.3,0-0.6-0.1-0.9
			c0,0,0-0.1,0-0.1c0,0,0,0,0,0c0.1,0.1,0.2,0.1,0.3,0.1c0.1,0,0.3-0.1,0.3-0.1c0,0,0,0,0,0c0,0,0,0-0.1,0.1
			c-0.3,0.4-0.5,1.1-0.8,1.7l-0.8,1.9l-1.5,3.7L41,25.6L40.8,25.5z"/>
	</g>
	<text transform="matrix(1.0104 -1.562296e-02 1.546001e-02 0.9999 52.0081 34.7686)" class="st9 st5 st10">usity</text>
</g>
</svg>
